# xmcd
#
# Track frame offsets: 
#        150
#        14531
#        27118
#        45239
#        57753
#        72012
#        84749
#        102254
#        116816
#        131284
#        142666
#        164535
#        184384
#        197584
#        211174
#        221713
#        238702
#
# Disc length: 3336 seconds
#
# Revision: 0
# Processed by: cddbd v1.5.2PL0 Copyright (c) Steve Scherf et al.
# Submitted via: ExactAudioCopy v0.95b3
#
DISCID=e90d0611
DTITLE=Tim Sparks - Sidewalk Blues
DYEAR=1900
DGENRE=Blues
TTITLE0=Mississippi Blues
TTITLE1=Sidewalk Blues
TTITLE2=Oriental Blues
TTITLE3=Potato Head Blues
TTITLE4=In A Mist
TTITLE5=Alligator Crawl
TTITLE6=How Great Thou Art
TTITLE7=There Ain´t No Sweet Man That´s Worth The Salt O´My Tears
TTITLE8=The Pearls
TTITLE9=Maple Leaf Rag
TTITLE10=This Great Caravan Keeps On Rolling Along
TTITLE11=Goin´ Back To Mississippi Blues
TTITLE12=Carolina Shout
TTITLE13=I´ll Fly Away
TTITLE14=Victory Rag
TTITLE15=Jelly Roll Blues
TTITLE16=Amazing Grace
EXTD=
EXTT0=
EXTT1=
EXTT2=
EXTT3=
EXTT4=
EXTT5=
EXTT6=
EXTT7=
EXTT8=
EXTT9=
EXTT10=
EXTT11=
EXTT12=
EXTT13=
EXTT14=
EXTT15=
EXTT16=
PLAYORDER=
